<?xml version="1.0" encoding="UTF-8"?>
<svg id="Layer_1" data-name="Layer 1" xmlns="http://www.w3.org/2000/svg" viewBox="0 0 46.76 47.32">
  <path d="M26.55,5.43c1.51-1.33,4.37-2.08,6.95-2.12,2.19-.04,7.41.51,10.39,7.82.18.44,2.83,7.19,1.49,15.23-1.04,6.27-3.87,9.45-5.67,11.47-5.1,5.72-10.4,5.47-15.59,5.22-3.97-.19-8.62-.5-13.8-5.01-2.86-2.49-6.47-5.62-8.24-12.72-.33-1.33-2.16-8.66-.18-15.33C4.62.84,12.09.96,13.2,1.01c5.06.23,11.99,5.26,13.92,16.79,1.23,7.37.27,16.51-3.4,22.53-.39.65-5.2,8.26-11.23,5.32-4.41-2.15-8.54-9.48-8.3-18.15.13-4.77,1.6-10.35,4.66-13.25,3.07-2.9,6.96-2.38,9.68,1.36,2.26,3.11,2.92,7.39,3.11,8.87" fill="none" stroke="#000" stroke-linecap="round" stroke-linejoin="round" stroke-width="2"/>
</svg>